<svg id="mustache" xmlns="http://www.w3.org/2000/svg" viewBox="0 0 100 100"><title>mustache</title><path d="M81.29,41c-0.81,1.78.59,3.75,0.59,3.75-1-3,4.37-4.86,4.52-.2,0.16,5-9.63,10.3-14.6,2.74-5.23-8-12.23-9.41-17.67-7.4a6.91,6.91,0,0,0-4,4.41,6.91,6.91,0,0,0-4-4.41c-5.45-2-12.45-.55-17.67,7.4-5,7.56-14.76,2.3-14.6-2.74,0.15-4.67,5.56-2.84,4.52.2,0,0,1.41-2,.59-3.75-2.29-5-9.93-1.26-9.41,5.56,0,0,.51,14.15,20.67,14.82,5.25,0.18,12.38-1,18.09-7.26a9.05,9.05,0,0,0,1.85-3.2,9.05,9.05,0,0,0,1.85,3.2c5.71,6.3,12.84,7.44,18.09,7.26C90.19,60.67,90.7,46.51,90.7,46.51,91.22,39.69,83.58,35.95,81.29,41Z"/></svg>